<svg width="15" height="16" viewBox="0 0 15 16" fill="none" xmlns="http://www.w3.org/2000/svg">
<path d="M5.9329 4.12895C5.73678 4.12895 5.54065 4.0567 5.38581 3.90186L3.35226 1.86831L1.31871 3.90186C1.01936 4.20121 0.523871 4.20121 0.224516 3.90186C-0.0748387 3.6025 -0.0748387 3.10702 0.224516 2.80766L2.80516 0.227019C3.10452 -0.0723363 3.6 -0.0723363 3.89936 0.227019L6.48 2.80766C6.77936 3.10702 6.77936 3.6025 6.48 3.90186C6.32516 4.0567 6.12903 4.12895 5.9329 4.12895Z" fill="#676A6D"/>
<path d="M3.35226 16C2.92903 16 2.57806 15.649 2.57806 15.2258V0.774194C2.57806 0.350968 2.92903 0 3.35226 0C3.77548 0 4.12645 0.350968 4.12645 0.774194V15.2258C4.12645 15.649 3.77548 16 3.35226 16Z" fill="#676A6D"/>
<path d="M11.6103 15.9999C11.4142 15.9999 11.2181 15.9276 11.0632 15.7728L8.48257 13.1922C8.18322 12.8928 8.18322 12.3973 8.48257 12.098C8.78193 11.7986 9.27741 11.7986 9.57677 12.098L11.6103 14.1315L13.6439 12.098C13.9432 11.7986 14.4387 11.7986 14.7381 12.098C15.0374 12.3973 15.0374 12.8928 14.7381 13.1922L12.1574 15.7728C12.0026 15.9276 11.8064 15.9999 11.6103 15.9999Z" fill="#676A6D"/>
<path d="M11.6103 16C11.1871 16 10.8361 15.649 10.8361 15.2258V0.774194C10.8361 0.350968 11.1871 0 11.6103 0C12.0335 0 12.3845 0.350968 12.3845 0.774194V15.2258C12.3845 15.649 12.0335 16 11.6103 16Z" fill="#676A6D"/>
</svg>
